<?xml version="1.0" encoding="utf-8"?>
<!-- Generator: Adobe Illustrator 27.0.0, SVG Export Plug-In . SVG Version: 6.00 Build 0)  -->
<svg version="1.1" id="Capa_1" xmlns="http://www.w3.org/2000/svg" xmlns:xlink="http://www.w3.org/1999/xlink" x="0px" y="0px"
	 viewBox="0 0 36 36" style="enable-background:new 0 0 36 36;" xml:space="preserve">
<style type="text/css">
	.st0{fill:none;stroke:#141414;stroke-width:3;}
	.st1{fill:#141414;}
</style>
<g id="_x31_8_x2B_">
	<g id="Group" transform="translate(1.500000, 1.500000)">
		<path id="Rectangle" class="st0" d="M4,0h25c2.209,0,4,1.791,4,4v25c0,2.209-1.791,4-4,4H4c-2.209,0-4-1.791-4-4V4
			C0,1.791,1.791,0,4,0z"/>
		<g id="_x31_8">
			<g>
				<path id="path-1" class="st1" d="M10.773,20.5V8.494H8.075l-3.92,2.092l1.222,2.461l2.268-1.187v8.64H10.773z M17.655,20.79
					c0.938,0,1.772-0.171,2.505-0.514s1.299-0.798,1.701-1.367s0.602-1.201,0.602-1.898c-0.006-1.395-0.68-2.423-2.021-3.085
					c0.457-0.264,0.82-0.617,1.09-1.059s0.404-0.91,0.404-1.402c0-0.65-0.195-1.225-0.584-1.723s-0.908-0.885-1.556-1.16
					s-1.373-0.413-2.175-0.413c-1.283,0-2.331,0.309-3.142,0.927s-1.217,1.408-1.217,2.369c0,0.492,0.151,0.962,0.453,1.411
					s0.699,0.798,1.191,1.05c-0.709,0.34-1.247,0.773-1.613,1.301s-0.549,1.134-0.549,1.819c0,0.744,0.212,1.4,0.637,1.969
					s1.006,1.006,1.745,1.314S16.706,20.79,17.655,20.79z M17.602,13.196c-0.48-0.135-0.861-0.341-1.143-0.62
					s-0.422-0.584-0.422-0.918c0-0.422,0.135-0.751,0.404-0.989s0.645-0.356,1.125-0.356c0.457,0,0.832,0.125,1.125,0.374
					s0.439,0.573,0.439,0.971c0,0.328-0.138,0.63-0.413,0.905S18.071,13.05,17.602,13.196z M17.585,18.391
					c-0.516,0-0.939-0.138-1.27-0.413s-0.497-0.63-0.497-1.063c0-0.85,0.595-1.424,1.784-1.723c0.586,0.152,1.036,0.375,1.349,0.668
					s0.47,0.645,0.47,1.055c0,0.434-0.168,0.788-0.505,1.063S18.135,18.391,17.585,18.391z"/>
			</g>
			<g>
				<path id="path-1_00000015345108341430590750000011161324351451269563_" class="st1" d="M10.773,20.5V8.494H8.075l-3.92,2.092
					l1.222,2.461l2.268-1.187v8.64H10.773z M17.655,20.79c0.938,0,1.772-0.171,2.505-0.514s1.299-0.798,1.701-1.367
					s0.602-1.201,0.602-1.898c-0.006-1.395-0.68-2.423-2.021-3.085c0.457-0.264,0.82-0.617,1.09-1.059s0.404-0.91,0.404-1.402
					c0-0.65-0.195-1.225-0.584-1.723s-0.908-0.885-1.556-1.16s-1.373-0.413-2.175-0.413c-1.283,0-2.331,0.309-3.142,0.927
					s-1.217,1.408-1.217,2.369c0,0.492,0.151,0.962,0.453,1.411s0.699,0.798,1.191,1.05c-0.709,0.34-1.247,0.773-1.613,1.301
					s-0.549,1.134-0.549,1.819c0,0.744,0.212,1.4,0.637,1.969s1.006,1.006,1.745,1.314S16.706,20.79,17.655,20.79z M17.602,13.196
					c-0.48-0.135-0.861-0.341-1.143-0.62s-0.422-0.584-0.422-0.918c0-0.422,0.135-0.751,0.404-0.989s0.645-0.356,1.125-0.356
					c0.457,0,0.832,0.125,1.125,0.374s0.439,0.573,0.439,0.971c0,0.328-0.138,0.63-0.413,0.905S18.071,13.05,17.602,13.196z
					 M17.585,18.391c-0.516,0-0.939-0.138-1.27-0.413s-0.497-0.63-0.497-1.063c0-0.85,0.595-1.424,1.784-1.723
					c0.586,0.152,1.036,0.375,1.349,0.668s0.47,0.645,0.47,1.055c0,0.434-0.168,0.788-0.505,1.063S18.135,18.391,17.585,18.391z"/>
			</g>
		</g>
		
			<rect id="Rectangle_00000163065482085606892110000003233790220647473594_" x="5.9" y="23.5" class="st1" width="16" height="2.8"/>
		<g id="_x2B_">
			<g>
				<polygon id="path-2" class="st1" points="27.125,17.25 27.125,14.42 29.991,14.42 29.991,13.022 27.108,13.022 27.108,10.192 
					25.702,10.192 25.702,13.022 22.81,13.022 22.81,14.42 25.702,14.42 25.702,17.25 				"/>
			</g>
			<g>
				<polygon id="path-2_00000064352491313032361410000004539816361707214264_" class="st1" points="27.125,17.25 27.125,14.42 
					29.991,14.42 29.991,13.022 27.108,13.022 27.108,10.192 25.702,10.192 25.702,13.022 22.81,13.022 22.81,14.42 25.702,14.42 
					25.702,17.25 				"/>
			</g>
		</g>
	</g>
</g>
</svg>
